<?xml version="1.0" encoding="utf-8"?>
<!-- Generator: Adobe Illustrator 18.1.0, SVG Export Plug-In . SVG Version: 6.00 Build 0)  -->
<svg version="1.1" id="Layer_1" xmlns="http://www.w3.org/2000/svg" xmlns:xlink="http://www.w3.org/1999/xlink" x="0px" y="0px"
	 viewBox="0 0 201.8 38" enable-background="new 0 0 201.8 38" xml:space="preserve">
<g>
	<path fill="#AF8A39" stroke="#AF8A39" stroke-miterlimit="10" d="M16.3,37.4h-1.1l-2.3-11.1H4.1L1.7,37.4H0.6L8.1,0.5h0.9
		L16.3,37.4z M12.6,25.2L8.5,3.3L4.3,25.2H12.6z M8.3,0.5L8.3,0.5h0.2h0.1h0.1h0.1H8.3z"/>
	<path fill="#AF8A39" stroke="#AF8A39" stroke-miterlimit="10" d="M21.4,3.2v34.2h-0.5h-0.6V1V1V0.5h0.9l9.4,18.4L40,0.5h0.8V1V1
		v36.4h-0.5h-0.5V3.1L31,20.7h-0.7L21.4,3.2z M21.1,0.5L21.1,0.5H21h-0.1h-0.1h-0.1h-0.1h-0.1H21.1z M40.1,0.5L40.1,0.5h0.1h0.1h0.1
		h0.1h0.1h0.1H40.1z"/>
	<path fill="#AF8A39" stroke="#AF8A39" stroke-miterlimit="10" d="M59.8,0.6h1.2l-7.1,18v18.8h-0.5h-0.5V18.5l-7.1-18h1.2l6.5,17
		L59.8,0.6z"/>
	<path fill="#606161" d="M81.2,29c0,0,0,0.3,0,0.8c0,0.5-0.1,1.1-0.2,1.8c-0.1,0.7-0.3,1.5-0.6,2.2c-0.3,0.8-0.7,1.5-1.3,2.1
		C77.8,37.3,76,38,73.7,38c-2.3,0-4.1-0.7-5.3-2.1c-0.6-0.6-1.1-1.3-1.3-2.1c-0.3-0.7-0.5-1.4-0.6-2.1c-0.1-0.7-0.1-1.2-0.1-1.7
		c0-0.5,0-0.8,0-0.9V8.3c0-2.7,0.8-4.8,2.4-6.3c0.6-0.6,1.4-1,2.3-1.4C71.9,0.2,72.7,0,73.7,0c1.8,0,3.5,0.6,5,1.8
		c0.8,0.7,1.5,1.7,2,2.9c0.5,1.2,0.7,2.6,0.7,4h-1.1c0-1.3-0.2-2.5-0.6-3.5c-0.4-1-0.9-1.8-1.5-2.4c-0.6-0.6-1.3-1.1-2.1-1.4
		c-0.8-0.3-1.5-0.5-2.3-0.5c-0.8,0-1.5,0.1-2.3,0.4c-0.8,0.3-1.4,0.7-2,1.3c-0.6,0.6-1.1,1.3-1.4,2.2c-0.4,0.9-0.5,2-0.5,3.2v20.9
		v0.1c0,0.8,0,1.6,0.1,2.2c0.1,0.6,0.3,1.2,0.5,1.9c0.3,0.7,0.6,1.3,1.1,1.8c1.1,1.2,2.6,1.8,4.5,1.8c2,0,3.6-0.6,4.7-1.8
		c0.5-0.5,0.9-1.2,1.1-1.9c0.3-0.7,0.4-1.4,0.5-2c0.1-0.6,0.2-1.4,0.2-2.3H81.2z"/>
	<path fill="#606161" d="M87.5,37.4v-0.5V0.5H88h0.5v35.9h13.6v0.5v0.5H87.5z"/>
	<path fill="#606161" d="M121.7,37.4h-1.1l-2.3-11.1h-8.8l-2.4,11.1H106l7.5-36.9h0.9L121.7,37.4z M118,25.2l-4.1-21.9l-4.3,21.9
		H118z M113.7,0.5L113.7,0.5h0.2h0.1h0.1h0.1H113.7z"/>
	<path fill="#606161" d="M138.9,3.8c0.6,1,1.1,2.2,1.5,3.4s0.5,2.5,0.5,3.8c0,1.3-0.2,2.6-0.5,3.9s-0.9,2.4-1.5,3.4
		c-0.7,1.1-1.6,1.9-2.7,2.5c-1.1,0.6-2.7,0.8-4.7,0.8h-4.8v15.8h-0.6h-0.5V1.1V0.5h0.6h5.2c1.8,0,3.4,0.3,4.6,0.9
		C137.3,1.9,138.3,2.8,138.9,3.8z M138,17.8c0.6-0.9,1-2,1.4-3.1s0.5-2.4,0.5-3.6c0-1.2-0.2-2.4-0.5-3.5c-0.3-1.2-0.8-2.2-1.4-3.1
		c-0.6-0.9-1.4-1.6-2.5-2.1c-1.1-0.5-2.4-0.7-4.1-0.7h-4.8v19h4.8c2,0,3.4-0.2,4.3-0.7C136.7,19.3,137.5,18.6,138,17.8z"/>
	<path fill="#606161" d="M158.5,3.8c0.6,1,1.1,2.2,1.5,3.4s0.5,2.5,0.5,3.8c0,1.3-0.2,2.6-0.5,3.9s-0.9,2.4-1.5,3.4
		c-0.7,1.1-1.6,1.9-2.7,2.5c-1.1,0.6-2.7,0.8-4.7,0.8h-4.8v15.8h-0.6h-0.5V1.1V0.5h0.6h5.2c1.8,0,3.4,0.3,4.6,0.9
		C156.9,1.9,157.9,2.8,158.5,3.8z M157.6,17.8c0.6-0.9,1-2,1.4-3.1s0.5-2.4,0.5-3.6c0-1.2-0.2-2.4-0.5-3.5c-0.3-1.2-0.8-2.2-1.4-3.1
		c-0.6-0.9-1.4-1.6-2.5-2.1c-1.1-0.5-2.4-0.7-4.1-0.7h-4.8v19h4.8c2,0,3.4-0.2,4.3-0.7C156.3,19.3,157.1,18.6,157.6,17.8z"/>
	<path fill="#606161" d="M179.9,36.4v0.5v0.5h-14.3v-0.5V1.1V0.5h14.1v0.6v0.4h-13v19.2h10.2v0.5v0.5h-10.2v14.8H179.9z"/>
	<path fill="#606161" d="M193.8,21.5c-0.4,0.1-0.8,0.1-1.1,0.1c-0.4,0-0.8,0-1.2,0h-4.8v15.8h-0.6h-0.5V1.1V0.5h0.6h5.2
		c1.8,0,3.4,0.3,4.6,0.9c1.2,0.6,2.2,1.4,2.9,2.4c0.6,1,1.1,2.2,1.5,3.4s0.5,2.5,0.5,3.8c0,1.3-0.2,2.6-0.5,3.9s-0.9,2.4-1.5,3.4
		c-0.5,0.7-1,1.4-1.7,1.9c-0.6,0.5-1.5,0.9-2.4,1.1L193.8,21.5z M197.9,17.8c0.6-0.9,1-2,1.4-3.1c0.3-1.2,0.5-2.4,0.5-3.6
		c0-1.2-0.2-2.4-0.5-3.5c-0.3-1.2-0.8-2.2-1.4-3.1c-0.6-0.9-1.4-1.6-2.5-2.1s-2.4-0.7-4.1-0.7h-4.8v19h4.8c2,0,3.4-0.2,4.3-0.7
		S197.4,18.6,197.9,17.8z M194.7,21.3l7.1,16.1h-1.1l-7-15.9L194.7,21.3z"/>
</g>
</svg>
